<svg version="1.0" xmlns="http://www.w3.org/2000/svg" width="300.000000pt" height="113.000000pt" viewBox="0 0 300.000000 113.000000" preserveAspectRatio="xMidYMid meet">
<metadata>
Created by potrace 1.10, written by Peter Selinger 2001-2011
</metadata>
<g transform="translate(0.000000,113.000000) scale(0.100000,-0.100000)" fill="#000000" stroke="none">
<path d="M1497 1053 c-11 -10 -8 -53 3 -53 6 0 10 14 10 30 0 31 -2 35 -13 23z" data-index="0"></path>
<path d="M1310 1045 c0 -14 32 -66 37 -61 8 7 -17 66 -28 66 -5 0 -9 -2 -9 -5z" data-index="1"></path>
<path d="M1241 1035 c-1 -15 56 -81 63 -74 3 3 -10 23 -29 45 -19 21 -34 35
-34 29z" data-index="2"></path>

<path d="M1190 1004 c0 -6 14 -23 30 -39 17 -16 30 -24 30 -19 0 6 -13 23 -30
39 -16 16 -30 24 -30 19z" data-index="4"></path>
<path d="M1561 1001 c-8 -5 -15 -26 -15 -48 -2 -31 -6 -39 -23 -41 -12 -2 -33
4 -47 14 -17 11 -35 14 -54 10 -15 -4 -62 -9 -105 -11 -82 -5 -128 -23 -182
-71 -23 -20 -24 -22 -5 -10 89 57 196 87 232 65 11 -7 11 -9 0 -9 -7 0 -10 -5
-6 -11 4 -8 -10 -10 -47 -8 -57 2 -64 1 -143 -34 -28 -12 -54 -21 -58 -19 -12
3 -85 -35 -94 -50 -4 -6 8 -2 28 10 41 26 56 28 38 7 -7 -8 -16 -13 -20 -10
-4 3 -13 -1 -19 -9 -9 -11 -9 -15 0 -18 6 -2 -2 -9 -17 -16 -27 -11 -27 -11
-10 3 22 16 10 21 -14 5 -12 -7 -12 -12 -2 -22 11 -11 20 -9 53 10 40 23 41
23 34 3 -4 -12 -2 -21 4 -21 6 0 15 18 21 39 10 38 13 40 88 64 52 16 92 23
123 20 l47 -5 -14 -36 c-7 -21 -18 -56 -24 -80 -6 -24 -26 -60 -44 -80 -41
-46 -56 -74 -56 -105 0 -14 -7 -30 -15 -37 -8 -6 -26 -32 -40 -57 l-25 -45 26
6 c14 4 60 14 102 23 42 8 79 19 82 22 3 4 55 16 115 26 61 10 116 21 123 25
22 11 -46 35 -100 35 -27 0 -48 3 -48 8 0 4 -25 7 -55 7 -60 0 -72 14 -27 31
54 21 208 -19 265 -69 16 -15 17 -14 11 1 -8 22 -120 77 -156 77 -15 0 -28 4
-28 8 0 14 55 61 93 81 33 17 38 17 49 3 7 -8 42 -28 78 -44 l65 -29 27 32
c27 32 68 136 90 227 8 37 7 46 -8 63 -19 22 -44 10 -44 -21 0 -10 -3 -26 -6
-34 -6 -15 -8 -15 -21 1 -13 17 -14 16 -9 -7 4 -14 9 -37 12 -52 4 -16 10 -28
15 -28 16 0 -9 -47 -45 -86 -46 -50 -47 -25 -1 29 19 22 35 45 35 50 0 6 -15
-7 -34 -29 -33 -38 -34 -38 -53 -21 -11 9 -25 17 -31 17 -6 0 -14 9 -17 20 -4
11 -20 27 -37 36 -29 15 -30 15 -23 -5 10 -34 -43 -111 -77 -111 -17 0 -7 18
12 23 11 3 26 20 34 38 14 33 14 34 -25 67 -47 41 -54 82 -14 82 14 0 25 5 25
11 0 6 6 9 13 7 17 -6 16 -65 -2 -65 -8 0 -16 9 -19 19 -2 10 -11 18 -18 18
-18 0 -18 -6 3 -41 23 -38 45 -45 62 -20 8 13 24 21 41 21 23 0 29 6 39 43 7
23 16 54 20 68 8 24 5 28 -29 38 -45 13 -80 14 -99 2z m39 -72 c0 -20 -15 -26
-25 -9 -9 15 3 43 15 35 5 -3 10 -15 10 -26z m-120 -25 c12 -11 12 -20 3 -44
-9 -25 -9 -30 4 -30 16 0 52 -38 53 -57 0 -16 -49 -53 -72 -53 -25 0 -13 -18
20 -31 18 -7 22 -13 14 -21 -7 -7 -19 -5 -40 10 l-29 21 -13 -35 c-13 -31 -33
-44 -43 -26 -2 4 3 39 13 77 9 39 15 85 12 103 -4 31 -3 32 25 26 20 -4 33 -1
42 10 11 13 7 16 -26 21 -53 9 -63 13 -63 25 0 15 41 30 65 23 11 -3 27 -11
35 -19z m185 16 c3 -5 -1 -22 -9 -37 l-15 -28 1 38 c1 36 11 47 23 27z m-294
-150 c-5 -23 -7 -49 -4 -58 5 -11 3 -13 -6 -7 -10 6 -11 2 -6 -15 5 -15 4 -20
-4 -16 -7 5 -9 1 -5 -8 4 -11 0 -16 -11 -16 -12 0 -15 5 -10 18 11 26 23 62
35 110 14 56 24 49 11 -8z m321 -47 c10 -9 18 -20 18 -25 0 -14 -20 -9 -58 17
l-37 25 29 0 c16 0 38 -7 48 -17z m-228 -72 c8 -12 -21 -47 -31 -37 -4 5 -2
11 5 13 10 4 10 8 1 19 -9 11 -8 14 4 14 9 0 18 -4 21 -9z m-108 -26 c18 -13
17 -14 -18 -15 -27 0 -42 -7 -57 -26 -23 -30 -27 -64 -9 -82 20 -20 28 -14 28
23 0 40 11 43 47 15 16 -12 41 -20 64 -20 22 0 39 -4 39 -8 0 -5 -12 -9 -27
-9 -16 0 -48 -9 -72 -20 -41 -19 -47 -20 -68 -6 -37 24 -46 49 -33 88 11 34
52 75 74 75 7 0 21 -7 32 -15z" data-index="5" style="opacity: 1;"></path>
<path d="M1380 976 c-25 -6 -54 -17 -65 -24 -18 -10 -17 -11 14 -12 18 0 51 5
73 12 32 9 44 9 74 -5 44 -22 44 -22 44 7 0 19 -6 24 -37 30 -47 7 -48 7 -103
-8z" data-index="6" style="opacity: 1;"></path>

<path d="M2385 898 c-88 -21 -243 -58 -344 -81 l-183 -42 -22 -60 c-12 -33
-37 -82 -54 -109 -30 -47 -42 -83 -23 -72 4 3 111 28 237 56 495 110 530 119
513 134 -2 2 -92 -16 -199 -40 -130 -29 -198 -40 -205 -33 -6 6 -5 13 5 19 8
5 17 5 20 0 7 -12 352 69 370 87 18 18 20 18 -207 -33 -165 -37 -182 -39 -167
-24 13 13 292 79 366 87 52 5 78 16 66 29 -16 15 -390 -64 -435 -92 -31 -19
-33 -18 -33 19 0 25 6 36 29 50 27 16 167 52 354 92 54 12 80 23 88 36 13 25
16 25 -176 -23z m-330 -174 c-7 -64 -7 -66 14 -59 15 4 21 2 21 -9 0 -9 -14
-19 -32 -24 l-33 -8 -3 69 c-3 80 1 97 23 97 14 0 16 -9 10 -66z m-97 29 c-2
-10 -13 -19 -26 -21 -14 -2 -22 -10 -22 -22 0 -13 5 -17 15 -14 9 4 15 0 15
-9 0 -8 -7 -17 -15 -21 -24 -9 -19 -39 6 -33 15 4 19 1 17 -11 -3 -16 -63 -40
-74 -29 -3 3 -3 39 1 80 7 73 8 75 39 85 45 14 48 14 44 -5z m37 -124 c0 -7
-8 -15 -17 -17 -12 -2 -15 2 -11 18 6 23 28 22 28 -1z" data-index="8" style="opacity: 1; visibility: hidden;"></path>
<path d="M1119 916 c17 -20 9 -30 -36 -51 -73 -35 -114 -66 -130 -100 -16 -33
-15 -36 2 -55 12 -13 31 -20 54 -20 39 0 70 14 58 26 -4 4 -13 2 -19 -4 -17
-17 -63 -15 -79 4 -22 26 14 76 84 118 34 20 72 44 85 54 l23 18 -27 13 c-24
11 -26 10 -15 -3z" data-index="9" style="opacity: 1;"></path>
<path d="M1676 855 c-9 -14 -24 -25 -32 -25 -11 0 -2 -14 25 -40 47 -46 52
-47 76 -20 17 18 16 21 -11 65 -16 25 -32 45 -35 45 -4 0 -14 -11 -23 -25z" data-index="10" style="opacity: 1;"></path>

<path d="M1228 812 c-44 -14 -47 -18 -59 -65 -6 -27 -9 -69 -5 -93 5 -43 5
-44 -22 -44 -21 0 -24 2 -12 10 11 7 11 10 2 10 -26 0 -249 -60 -347 -94 -55
-19 -129 -44 -165 -56 -36 -13 -69 -27 -75 -31 -14 -14 47 0 175 39 194 58
448 118 458 107 9 -8 2 -11 -173 -62 -241 -71 -484 -147 -481 -151 9 -8 316
74 543 145 62 19 118 33 124 31 6 -2 -129 -50 -301 -107 -171 -58 -313 -108
-316 -112 -5 -9 109 21 331 86 83 24 179 51 215 60 76 20 90 29 90 62 0 31 15
60 50 98 25 27 80 159 69 168 -14 13 -60 12 -101 -1z m42 -62 c25 -8 25 -8 -5
-10 -29 -2 -29 -2 -5 -9 23 -6 23 -8 6 -14 -10 -4 -16 -10 -13 -14 8 -7 -51
-83 -64 -83 -12 0 -11 56 2 103 11 39 25 44 79 27z" data-index="12" style="opacity: 1; visibility: hidden;"></path>

<path d="M1535 643 l-39 -26 25 -10 c75 -29 99 -41 123 -64 34 -31 64 -26 88
15 l18 29 -48 18 c-26 9 -64 28 -84 41 -21 13 -39 24 -40 24 -2 0 -21 -12 -43
-27z" data-index="14" style="opacity: 1;"></path>
<path d="M2327 638 c-60 -15 -129 -30 -155 -33 -25 -3 -143 -28 -261 -55 -119
-28 -265 -61 -326 -75 -619 -140 -678 -154 -690 -170 -6 -6 -37 -20 -70 -29
-139 -40 -196 -59 -192 -62 4 -4 191 37 240 52 12 4 17 0 17 -14 0 -14 -12
-23 -45 -32 -25 -7 -48 -17 -51 -21 -7 -11 -8 -11 49 6 l47 14 0 -44 c0 -34 4
-45 16 -45 8 0 68 13 132 29 64 16 160 39 212 51 52 12 306 73 565 137 415
102 473 119 498 143 l28 27 -80 -21 c-44 -11 -83 -17 -87 -13 -12 12 2 19 88
39 77 18 136 43 125 54 -3 3 -51 -7 -107 -21 -56 -14 -105 -24 -107 -21 -13
12 14 25 109 50 66 18 113 36 132 52 15 14 27 26 25 27 -2 2 -53 -10 -112 -25z
m-197 -123 c0 -61 -11 -69 -35 -27 l-16 27 5 -32 c3 -19 1 -33 -4 -33 -6 0
-10 25 -10 56 0 56 12 65 30 20 8 -18 9 -17 9 12 1 56 21 35 21 -23z m-80 -19
c0 -46 -19 -72 -45 -62 -9 3 -15 18 -15 40 0 50 9 66 36 66 22 0 24 -4 24 -44z
m-78 -21 c-2 -30 -8 -55 -14 -55 -6 0 -8 10 -4 23 3 12 6 37 6 55 0 17 3 32 8
32 4 0 5 -25 4 -55z m-34 26 c3 -9 -2 -11 -17 -6 -19 6 -21 2 -21 -29 0 -20 5
-36 11 -36 6 0 8 9 4 20 -5 14 -2 20 10 20 12 0 15 -7 13 -27 -2 -22 -8 -28
-28 -28 -22 0 -25 5 -28 38 -2 21 2 45 9 53 14 17 40 15 47 -5z m-68 -2 c0 -6
-9 -13 -20 -16 -23 -6 -27 -23 -5 -23 8 0 15 -4 15 -9 0 -5 -7 -11 -15 -15
-24 -9 -18 -28 6 -21 15 5 20 3 17 -6 -3 -8 -14 -15 -25 -17 -19 -3 -21 3 -24
49 -3 44 -1 53 16 60 28 11 35 11 35 -2z m-100 -59 c0 -29 4 -40 15 -40 20 0
19 -16 -1 -24 -38 -14 -44 -7 -44 49 0 42 3 55 15 55 11 0 15 -11 15 -40z
m-90 15 c0 -8 -9 -15 -20 -15 -11 0 -20 -7 -20 -15 0 -9 6 -12 15 -9 9 4 15 0
15 -10 0 -9 -7 -16 -15 -16 -8 0 -15 -7 -15 -16 0 -11 6 -14 20 -9 14 5 20 2
20 -9 0 -9 -6 -16 -12 -16 -7 0 -23 -3 -35 -6 -22 -6 -23 -4 -23 59 0 60 2 66
23 70 41 8 47 7 47 -8z m-92 -17 c19 -19 14 -29 -14 -26 -24 3 -26 -1 -28 -34
-2 -25 1 -38 10 -38 7 0 14 5 16 12 2 6 10 9 18 6 20 -6 -26 -50 -48 -46 -13
2 -18 16 -20 61 -3 52 -1 58 20 67 31 12 32 12 46 -2z m-88 -73 c0 -74 -16
-86 -43 -32 l-16 32 0 -42 c-1 -24 -5 -43 -11 -43 -13 0 -13 127 0 135 5 3 16
-8 25 -25 19 -37 27 -38 25 -2 -3 37 -2 42 10 42 6 0 10 -28 10 -65z m-102 7
c2 -13 -2 -29 -8 -37 -8 -10 -8 -19 -1 -34 14 -26 14 -31 -3 -31 -8 0 -18 9
-21 20 -9 29 -23 25 -17 -5 3 -18 0 -25 -12 -25 -13 0 -16 12 -16 64 0 68 6
76 50 73 18 -1 26 -9 28 -25z m-103 -99 c-5 -23 -45 -41 -64 -28 -6 3 -11 33
-11 66 0 45 3 59 15 59 11 0 13 -10 8 -50 -5 -42 -3 -50 11 -50 13 0 16 11 16
54 0 35 5 56 13 59 13 4 22 -70 12 -110z m-97 28 c3 -58 -6 -76 -43 -84 -25
-4 -25 -3 -25 64 0 62 2 68 23 72 38 7 42 2 45 -52z m-94 -28 c-2 -74 -14 -90
-34 -43 -19 46 -31 47 -24 1 5 -34 4 -41 -10 -41 -13 0 -16 12 -16 65 0 52 3
65 15 65 9 0 22 -15 30 -32 l14 -33 1 43 c0 27 5 42 13 42 8 0 12 -19 11 -67z
m-104 33 c0 -7 -9 -16 -20 -19 -11 -3 -20 -12 -20 -21 0 -10 6 -13 15 -10 9 4
15 0 15 -10 0 -9 -7 -16 -15 -16 -8 0 -15 -7 -15 -16 0 -11 6 -14 20 -9 14 5
20 2 20 -9 0 -9 -6 -16 -12 -16 -7 0 -23 -3 -35 -6 -22 -6 -23 -4 -23 58 0 65
0 65 33 76 17 5 33 10 35 11 1 1 2 -5 2 -13z" data-index="15" style="opacity: 1;"></path>
<path d="M2010 484 c0 -21 4 -33 10 -29 6 3 10 19 10 36 0 16 -4 29 -10 29 -5
0 -10 -16 -10 -36z" data-index="16"></path>
<path d="M1347 374 c-14 -14 -7 -35 11 -32 9 2 17 10 17 17 0 16 -18 25 -28
15z" data-index="17" style="opacity: 1;"></path>
<path d="M1150 290 c0 -29 4 -40 15 -40 11 0 15 11 15 40 0 29 -4 40 -15 40
-11 0 -15 -11 -15 -40z" data-index="18"></path>

<path d="M1000 416 c-221 -74 -452 -160 -441 -164 12 -4 95 17 352 90 201 57
216 63 232 91 10 16 16 31 15 32 -2 2 -73 -20 -158 -49z" data-index="20" style="opacity: 1; visibility: hidden;"></path>

<path d="M1837 313 c-11 -10 -8 -41 3 -48 14 -9 42 14 34 27 -4 6 -10 5 -15
-3 -4 -7 -12 -10 -16 -5 -4 4 1 14 11 22 15 11 16 14 5 14 -9 0 -19 -3 -22 -7z" data-index="22" style="opacity: 1; visibility: hidden;"></path>

<path d="M1725 273 c-5 -12 -9 -14 -12 -5 -9 24 -23 12 -23 -20 1 -32 1 -32
16 -13 13 17 16 18 24 5 7 -11 10 -7 10 18 0 36 -4 40 -15 15z" data-index="24" style="opacity: 1; visibility: hidden;"></path>

<path d="M1554 235 c-4 -8 -3 -22 0 -31 5 -13 9 -14 21 -4 8 7 15 21 15 31 0
23 -28 25 -36 4z" data-index="26" style="opacity: 1; visibility: hidden;"></path>

<path d="M1396 210 c-14 -4 -16 -9 -8 -14 7 -4 12 -17 13 -29 1 -14 4 -10 9
13 5 19 8 35 7 36 -1 1 -11 -2 -21 -6z" data-index="28" style="opacity: 1; visibility: hidden;"></path>

<path d="M1330 168 c0 -25 3 -29 10 -18 8 12 12 12 18 2 6 -9 9 -3 10 17 0 24
-4 31 -19 31 -15 0 -19 -7 -19 -32z" data-index="30" style="opacity: 1; visibility: hidden;"></path>

<path d="M1177 153 c-12 -12 -7 -23 11 -24 15 0 15 -1 -2 -8 -14 -5 -16 -10
-8 -15 7 -4 17 -4 22 -1 14 9 12 35 -2 35 -9 0 -8 4 2 10 13 8 13 10 -1 10 -9
0 -19 -3 -22 -7z" data-index="32" style="opacity: 1; visibility: hidden;"></path>
</g>
</svg>